<svg width="45" height="59" viewBox="0 0 45 59" fill="none" xmlns="http://www.w3.org/2000/svg">
<path d="M44.6744 41.7379C44.6744 27.4924 34.6738 10.1708 22.3355 3.04715C19.8311 1.60099 17.422 0.685651 15.1745 0.267115L14.9142 0.219476L14.6556 0.176942C14.4854 0.153123 14.3153 0.129304 14.1451 0.108887C13.8049 0.0669203 13.4703 0.0362956 13.1413 0.0170134C12.9712 0.0170134 12.813 0.00340273 12.6513 0C12.4063 0 12.1647 0 11.9249 0C11.7649 0 11.6084 0.0153126 11.4519 0.0255208C11.1371 0.0493399 10.8292 0.0816653 10.5246 0.125901C10.3732 0.14972 10.2235 0.173539 10.0721 0.200761C9.92236 0.231386 9.77604 0.260308 9.62803 0.294336C8.69847 0.498387 7.7998 0.823874 6.95518 1.26241L1.98719 3.85189L2.54014 5.46139C2.2501 5.93265 1.9882 6.42066 1.75581 6.92286C1.68605 7.07598 1.61629 7.22911 1.54994 7.38734C0.549538 9.73692 0 12.6105 0 15.9503C0 19.2901 0.549538 22.7966 1.54994 26.3031C1.61629 26.5362 1.68605 26.771 1.75581 27.0024C2.21518 28.5217 2.75792 30.0376 3.37551 31.5382C3.47079 31.7696 3.56776 31.9993 3.66644 32.2307L3.81446 32.571C3.91654 32.8007 4.01862 33.0286 4.1224 33.2515C4.22619 33.4744 4.33168 33.7092 4.43886 33.9321C4.49161 34.0461 4.54604 34.1583 4.60049 34.2723C4.70937 34.5003 4.81996 34.7249 4.94076 34.9529C4.9969 35.0669 5.05305 35.1792 5.11089 35.2932C5.22489 35.5177 5.34058 35.7423 5.45117 35.9635C5.50901 36.0758 5.56686 36.1881 5.6213 36.3038C5.91961 36.8618 6.22586 37.4142 6.54005 37.9609C7.48444 39.6008 8.51463 41.1898 9.62632 42.7213C9.77434 42.9255 9.92066 43.1245 10.0704 43.327L10.5229 43.9242C10.8269 44.3189 11.136 44.7091 11.4502 45.0947C11.6067 45.2853 11.7632 45.4758 11.9232 45.6664C12.1636 45.9488 12.4058 46.229 12.6496 46.5069C12.8107 46.6906 12.974 46.8738 13.1396 47.0564C13.4697 47.4182 13.8043 47.7738 14.1434 48.1232C14.3124 48.2967 14.4826 48.4697 14.6539 48.6421L14.9125 48.899C15.0826 49.0691 15.2527 49.2393 15.4229 49.3992C17.5125 51.4098 19.8329 53.166 22.3355 54.6309C26.1074 56.8086 29.6514 57.7801 32.7751 57.6729V59L37.7329 56.4156C42.0084 54.1885 44.6744 49.0929 44.6744 41.7379Z" fill="#35B76E"/>
</svg>
