<svg width="3" height="5" viewBox="0 0 3 5" fill="none" xmlns="http://www.w3.org/2000/svg">
<g opacity="0.3">
<path opacity="0.3" d="M0.906314 1.71152C1.03455 1.63748 1.03473 1.39773 0.906716 1.17601C0.778707 0.954288 0.570984 0.834566 0.442752 0.908602C0.314519 0.982637 0.314334 1.22239 0.442344 1.44411C0.570353 1.66583 0.778081 1.78555 0.906314 1.71152Z" fill="white"/>
<path opacity="0.3" d="M0.621167 2.56168C0.685698 2.52442 0.685349 2.40301 0.620389 2.29049C0.555428 2.17797 0.450455 2.11696 0.385924 2.15422C0.321393 2.19148 0.321742 2.3129 0.386702 2.42541C0.451663 2.53793 0.556637 2.59894 0.621167 2.56168Z" fill="white"/>
<path opacity="0.3" d="M1.139 2.4975C1.17871 2.47457 1.17876 2.40032 1.13912 2.33166C1.09947 2.263 1.03514 2.22592 0.995431 2.24885C0.955721 2.27177 0.955666 2.34602 0.99531 2.41469C1.03495 2.48335 1.09929 2.52043 1.139 2.4975Z" fill="white"/>
<path opacity="0.3" d="M2.09206 2.08602C2.19051 2.02918 2.19055 1.84495 2.09216 1.67452C1.99376 1.50409 1.83418 1.41201 1.73573 1.46885C1.63727 1.52569 1.63723 1.70993 1.73563 1.88035C1.83403 2.05078 1.9936 2.14286 2.09206 2.08602Z" fill="white"/>
<path opacity="0.3" d="M1.5248 0.494378C1.59513 0.453778 1.59483 0.321607 1.52413 0.199166C1.45344 0.0767242 1.33912 0.0103774 1.2688 0.0509773C1.19848 0.0915772 1.19878 0.223751 1.26947 0.346192C1.34016 0.468633 1.45448 0.534978 1.5248 0.494378Z" fill="white"/>
<path opacity="0.3" d="M0.781955 0.366289C0.839037 0.333331 0.839236 0.226803 0.782397 0.128352C0.725559 0.0299014 0.633207 -0.023191 0.576124 0.00976693C0.519042 0.0427248 0.518844 0.149253 0.575682 0.247704C0.63252 0.346154 0.724872 0.399247 0.781955 0.366289Z" fill="white"/>
<path opacity="0.3" d="M1.09463 1.05681C1.13682 1.03245 1.13695 0.953682 1.09492 0.880876C1.05288 0.808071 0.984602 0.768799 0.942407 0.793159C0.900212 0.81752 0.900086 0.896288 0.942121 0.969094C0.984156 1.0419 1.05243 1.08117 1.09463 1.05681Z" fill="white"/>
<path opacity="0.3" d="M1.64394 2.56531C1.7093 2.52757 1.70923 2.4051 1.6438 2.29176C1.57836 2.17841 1.47233 2.11712 1.40697 2.15486C1.34162 2.19259 1.34168 2.31506 1.40712 2.42841C1.47255 2.54175 1.57858 2.60304 1.64394 2.56531Z" fill="white"/>
<path opacity="0.3" d="M0.65388 4.97443C0.803626 4.88798 0.803821 4.60798 0.654314 4.34903C0.504807 4.09008 0.262214 3.95025 0.112467 4.0367C-0.0372794 4.12316 -0.0374727 4.40316 0.112034 4.66211C0.261542 4.92105 0.504133 5.06088 0.65388 4.97443Z" fill="white"/>
<path opacity="0.3" d="M1.0388 3.99806C1.15132 3.9331 1.15115 3.72217 1.03843 3.52693C0.925702 3.33169 0.74311 3.22607 0.630598 3.29103C0.518085 3.35599 0.518258 3.56692 0.630982 3.76216C0.743705 3.9574 0.926292 4.06302 1.0388 3.99806Z" fill="white"/>
<path opacity="0.3" d="M1.69023 4.73817C1.7713 4.69136 1.7712 4.53939 1.69 4.39875C1.6088 4.2581 1.47725 4.18204 1.39618 4.22885C1.3151 4.27566 1.3152 4.42762 1.3964 4.56826C1.4776 4.70891 1.60915 4.78498 1.69023 4.73817Z" fill="white"/>
<path opacity="0.3" d="M2.18384 4.47869C2.2525 4.43904 2.2528 4.311 2.1845 4.19269C2.1162 4.07439 2.00516 4.01062 1.9365 4.05027C1.86783 4.08991 1.86754 4.21796 1.93584 4.33626C2.00414 4.45456 2.11517 4.51833 2.18384 4.47869Z" fill="white"/>
<path opacity="0.3" d="M2.33925 3.37653C2.37068 3.35838 2.37061 3.2994 2.33909 3.2448C2.30756 3.1902 2.25652 3.16065 2.22508 3.1788C2.19364 3.19695 2.19371 3.25593 2.22523 3.31053C2.25676 3.36513 2.30781 3.39468 2.33925 3.37653Z" fill="white"/>
<path opacity="0.3" d="M1.63658 3.30279C1.67712 3.27938 1.67668 3.20273 1.6356 3.13157C1.59453 3.06042 1.52836 3.02172 1.48782 3.04513C1.44729 3.06853 1.44772 3.14518 1.4888 3.21633C1.52988 3.28749 1.59604 3.32619 1.63658 3.30279Z" fill="white"/>
<path opacity="0.3" d="M1.58443 3.62909C1.62515 3.60568 1.62526 3.52944 1.58465 3.45879C1.54405 3.38815 1.47812 3.34985 1.4374 3.37326C1.39667 3.39666 1.39657 3.4729 1.43717 3.54355C1.47777 3.6142 1.5437 3.65249 1.58443 3.62909Z" fill="white"/>
</g>
</svg>
