<svg width="25" height="25" viewBox="0 0 25 25" fill="none" xmlns="http://www.w3.org/2000/svg">
<path opacity="0.5" d="M20.9853 4.01472L20.6317 4.36827L20.9853 4.01472ZM12.5 23.54V24.04H12.5006L12.5 23.54ZM23.54 12.5L24.04 12.5006V12.5H23.54ZM5.97872 15.86V15.36H4.77161L5.62517 16.2136L5.97872 15.86ZM8.03936 17.9206L7.68575 18.2743L7.692 18.2803L8.03936 17.9206ZM7.82744 18.7303L7.95405 19.214H7.95405L7.82744 18.7303ZM7.36064 18.5994L7.72034 18.252L7.71419 18.2458L7.36064 18.5994ZM4.48064 15.7194L4.12703 16.0729L4.12709 16.0729L4.48064 15.7194ZM4.48064 15.0406L4.12709 14.6871L4.12703 14.6871L4.48064 15.0406ZM7.36064 12.1606L7.01323 11.8009L7.00709 11.8071L7.36064 12.1606ZM8.03351 12.1665L8.38707 11.8129H8.38706L8.03351 12.1665ZM8.03936 12.8394L8.39297 13.193L8.399 13.1867L8.03936 12.8394ZM5.97872 14.9L5.62517 14.5464L4.77161 15.4H5.97872V14.9ZM20.66 9.62L20.16 9.61944V9.62056L20.66 9.62ZM20.5194 9.95936L20.1663 9.60528L20.1658 9.60581L20.5194 9.95936ZM20.5194 9.28064L20.1658 9.6342L20.1663 9.63472L20.5194 9.28064ZM17.6394 6.40064L17.993 6.04703L17.9867 6.041L17.6394 6.40064ZM16.9665 6.40649L16.6129 6.05294V6.05294L16.9665 6.40649ZM16.9606 7.07936L16.6009 7.42677L16.6071 7.43291L16.9606 7.07936ZM19.0213 9.14V9.64H20.2284L19.3748 8.78645L19.0213 9.14ZM19.0213 10.1L19.3748 10.4536L20.2284 9.6H19.0213V10.1ZM16.9606 12.1606L16.607 11.807L16.601 11.8133L16.9606 12.1606ZM17.6394 12.8394L17.9868 13.1991L17.9929 13.1929L17.6394 12.8394ZM12.5 0C5.59644 0 0 5.59644 0 12.5H1C1 6.14873 6.14873 1 12.5 1V0ZM21.3388 3.66116C18.9946 1.31696 15.8152 0 12.5 0V1C15.55 1 18.4751 2.2116 20.6317 4.36827L21.3388 3.66116ZM25 12.5C25 9.18479 23.683 6.00537 21.3388 3.66116L20.6317 4.36827C22.7884 6.52494 24 9.45001 24 12.5H25ZM12.5 25C19.4036 25 25 19.4036 25 12.5H24C24 18.8513 18.8513 24 12.5 24V25ZM0 12.5C0 19.4036 5.59644 25 12.5 25V24C6.14873 24 1 18.8513 1 12.5H0ZM12.5 23.04C6.67892 23.04 1.96 18.3211 1.96 12.5H0.96C0.96 18.8734 6.12663 24.04 12.5 24.04V23.04ZM23.04 12.4994C23.0335 18.3181 18.3181 23.0335 12.4994 23.04L12.5006 24.04C18.8707 24.0329 24.0329 18.8707 24.04 12.5006L23.04 12.4994ZM12.5 1.96C18.3211 1.96 23.04 6.67892 23.04 12.5H24.04C24.04 6.12663 18.8734 0.96 12.5 0.96V1.96ZM1.96 12.5C1.96 6.67892 6.67892 1.96 12.5 1.96V0.96C6.12663 0.96 0.96 6.12663 0.96 12.5H1.96ZM15.38 16.36C15.9212 16.36 16.36 15.9212 16.36 15.38H15.36C15.36 15.369 15.369 15.36 15.38 15.36V16.36ZM5.97872 16.36H15.38V15.36H5.97872V16.36ZM8.39291 17.5671L6.33227 15.5064L5.62517 16.2136L7.68581 18.2742L8.39291 17.5671ZM8.65396 18.5141C8.74364 18.1714 8.64147 17.8071 8.38671 17.561L7.692 18.2803C7.6868 18.2753 7.68472 18.2678 7.68655 18.2608L8.65396 18.5141ZM7.95405 19.214C8.29669 19.1243 8.56427 18.8567 8.65396 18.5141L7.68655 18.2608C7.68838 18.2538 7.69384 18.2484 7.70083 18.2466L7.95405 19.214ZM7.00099 18.9467C7.24705 19.2015 7.61141 19.3036 7.95405 19.214L7.70083 18.2466C7.70783 18.2447 7.71526 18.2468 7.72028 18.252L7.00099 18.9467ZM4.12709 16.0729L7.00709 18.9529L7.71419 18.2458L4.83419 15.3658L4.12709 16.0729ZM4.12703 14.6871C3.74446 15.0698 3.74446 15.6902 4.12703 16.0729L4.83425 15.3659C4.84205 15.3737 4.84205 15.3863 4.83425 15.3941L4.12703 14.6871ZM7.00709 11.8071L4.12709 14.6871L4.83419 15.3942L7.71419 12.5142L7.00709 11.8071ZM8.38706 11.8129C8.00905 11.4349 7.39782 11.4296 7.01328 11.801L7.70799 12.5203C7.70015 12.5279 7.68767 12.5278 7.67996 12.52L8.38706 11.8129ZM8.399 13.1867C8.7704 12.8022 8.76508 12.191 8.38707 11.8129L7.67996 12.52C7.67224 12.5123 7.67214 12.4999 7.67971 12.492L8.399 13.1867ZM6.33227 15.2536L8.39291 13.1929L7.68581 12.4858L5.62517 14.5464L6.33227 15.2536ZM15.38 14.4H5.97872V15.4H15.38V14.4ZM16.36 15.38C16.36 14.8388 15.9212 14.4 15.38 14.4V15.4C15.369 15.4 15.36 15.391 15.36 15.38H16.36ZM20.16 9.62056C20.16 9.61483 20.1623 9.60933 20.1663 9.60528L20.8724 10.3134C21.0568 10.1296 21.1603 9.87983 21.16 9.61944L20.16 9.62056ZM20.1663 9.63472C20.1623 9.63067 20.16 9.62518 20.16 9.61944L21.16 9.62056C21.1603 9.36017 21.0568 9.11041 20.8724 8.92656L20.1663 9.63472ZM17.2858 6.75419L20.1658 9.6342L20.8729 8.92709L17.9929 6.04709L17.2858 6.75419ZM17.32 6.76004C17.3123 6.76776 17.2999 6.76787 17.292 6.76028L17.9867 6.041C17.6022 5.6696 16.991 5.67492 16.6129 6.05294L17.32 6.76004ZM17.3203 6.732C17.3279 6.73986 17.3278 6.75233 17.32 6.76004L16.6129 6.05294C16.2349 6.43095 16.2296 7.04218 16.601 7.42672L17.3203 6.732ZM19.3748 8.78645L17.3142 6.72581L16.6071 7.43291L18.6677 9.49356L19.3748 8.78645ZM9.62 9.64H19.0213V8.64H9.62V9.64ZM9.64 9.62C9.64 9.63105 9.63105 9.64 9.62 9.64V8.64C9.07876 8.64 8.64 9.07876 8.64 9.62H9.64ZM9.62 9.6C9.63105 9.6 9.64 9.60896 9.64 9.62H8.64C8.64 10.1612 9.07876 10.6 9.62 10.6V9.6ZM19.0213 9.6H9.62V10.6H19.0213V9.6ZM17.3142 12.5142L19.3748 10.4536L18.6677 9.74645L16.6071 11.8071L17.3142 12.5142ZM17.32 12.48C17.3278 12.4877 17.3279 12.5001 17.3203 12.508L16.601 11.8133C16.2296 12.1978 16.2349 12.8091 16.6129 13.1871L17.32 12.48ZM17.292 12.4797C17.2999 12.4721 17.3123 12.4722 17.32 12.48L16.6129 13.1871C16.991 13.5651 17.6022 13.5704 17.9867 13.199L17.292 12.4797ZM20.1658 9.60581L17.2858 12.4858L17.9929 13.1929L20.8729 10.3129L20.1658 9.60581Z" fill="black"/>
</svg>
