<svg width="26" height="19" viewBox="0 0 26 19" fill="none" xmlns="http://www.w3.org/2000/svg">
<g opacity="0.2">
<path opacity="0.2" d="M0.0021573 1.81099C-0.0122952 1.4147 0.0459645 1.0191 0.174052 0.643797C0.21505 0.514803 0.281935 0.39553 0.370602 0.293265C0.45927 0.191 0.567856 0.107899 0.689737 0.0490362C0.909762 -0.0437888 1.16703 -0.00482651 1.46154 0.165926C1.7779 0.357158 2.04282 0.622681 2.23335 0.939467C2.46437 1.30518 2.63826 1.70398 2.74903 2.12213C2.87019 2.57043 2.9309 3.03292 2.92953 3.49731C2.94159 3.89304 2.88039 4.28757 2.74903 4.66105C2.70908 4.79078 2.64262 4.91078 2.55385 5.01346C2.46508 5.11614 2.35593 5.19926 2.23335 5.25755C2.01562 5.35037 1.75835 5.31141 1.46154 5.14066C1.14553 4.94899 0.880699 4.68356 0.689737 4.36711C0.459499 4.00038 0.285664 3.60113 0.174052 3.18273C0.0571829 2.73494 -0.000605706 2.27378 0.0021573 1.81099ZM0.330482 2.00008C0.330211 2.38969 0.375776 2.77798 0.466265 3.15695C0.545046 3.50471 0.676026 3.83853 0.854749 4.14708C0.99871 4.40747 1.2078 4.62603 1.46154 4.78138C1.54793 4.8455 1.64979 4.8855 1.75672 4.89728C1.86364 4.90906 1.97179 4.8922 2.07006 4.84843C2.26401 4.72424 2.40303 4.53047 2.45854 4.30694C2.55536 3.98254 2.60059 3.64494 2.5926 3.3065C2.59385 2.91636 2.54886 2.52745 2.45854 2.1479C2.3787 1.80101 2.24778 1.46791 2.07006 1.15949C1.92562 0.898892 1.71592 0.680311 1.46154 0.525187C1.3755 0.46106 1.27391 0.421047 1.16725 0.409263C1.06059 0.397478 0.952715 0.414358 0.854749 0.458154C0.660656 0.581413 0.521521 0.774718 0.466265 0.997906C0.368178 1.32265 0.322355 1.66093 0.330482 2.00008Z" fill="#31A062"/>
<path opacity="0.2" d="M3.82514 6.26999C3.82134 6.24173 3.82542 6.21296 3.83695 6.18687C3.84848 6.16078 3.86701 6.13838 3.89047 6.12215C3.91525 6.10972 3.943 6.10442 3.97063 6.10685C3.99825 6.10927 4.02467 6.11934 4.04691 6.13591C4.1134 6.17779 4.16694 6.2373 4.20161 6.30781C4.24388 6.37544 4.26705 6.45325 4.26866 6.53299C4.27265 6.56096 4.26843 6.58949 4.25653 6.61512C4.24463 6.64075 4.22555 6.66238 4.20161 6.67739C4.17665 6.68863 4.14913 6.69296 4.12191 6.68994C4.0947 6.68691 4.0688 6.67664 4.04691 6.66019C3.98176 6.61893 3.92755 6.56252 3.88893 6.49577C3.85032 6.42901 3.82843 6.35391 3.82514 6.27686V6.26999Z" fill="#31A062"/>
<path opacity="0.2" d="M5.02673 6.16342L7.33705 3.62793L7.46253 3.70013V7.2309L8.12089 7.61079V7.95459L7.46253 7.57469V8.54075L7.1342 8.35167V7.38389L5.02673 6.16342ZM7.1342 7.04009V4.38772L5.57852 6.14278L7.1342 7.04009Z" fill="#31A062"/>
<path opacity="0.2" d="M8.44403 8.13507L10.7526 5.59959L10.8781 5.67178V9.20255L11.5365 9.58244V9.92623L10.8781 9.54635V10.5141L10.5498 10.3233V9.35553L8.44403 8.13507ZM10.5498 9.01174V6.35937L9.0027 8.11444L10.5498 9.01174Z" fill="#31A062"/>
<path opacity="0.2" d="M11.8596 10.1067L14.1682 7.57125L14.2937 7.64517V11.1742L14.952 11.5541V11.8979L14.2937 11.518V12.4858L13.9653 12.295V11.3289L11.8596 10.1067ZM13.9653 10.9851V8.33104L12.4183 10.0861L13.9653 10.9851Z" fill="#31A062"/>
<path opacity="0.2" d="M18.8232 12.4428C19.0059 12.5907 19.1703 12.7597 19.3131 12.9465C19.4601 13.1357 19.5799 13.3445 19.6689 13.567C19.7587 13.7851 19.8048 14.0187 19.8047 14.2546C19.8304 14.4969 19.7695 14.7405 19.6328 14.9422C19.5716 15.01 19.4944 15.0613 19.4081 15.0914C19.3219 15.1214 19.2295 15.1292 19.1394 15.1141C18.8832 15.0782 18.6377 14.988 18.4192 14.8494L17.4497 14.2907V9.46041L18.3591 9.98641C18.7145 10.1851 19.0197 10.4627 19.2512 10.7978C19.4657 11.1098 19.5803 11.4797 19.5795 11.8584C19.5795 12.13 19.5125 12.3122 19.3767 12.4033C19.2936 12.4518 19.2005 12.4805 19.1045 12.4874C19.0085 12.4942 18.9123 12.479 18.8232 12.4428ZM17.7694 11.6676L18.3504 12.0028C18.5343 12.1312 18.7584 12.1886 18.9813 12.1643C19.1532 12.1282 19.2426 11.9701 19.2426 11.6882C19.2403 11.4147 19.1558 11.1482 19.0002 10.9233C18.8332 10.6759 18.6107 10.471 18.3504 10.325L17.7694 9.98985V11.6676ZM17.7694 12.0114V14.1412L18.4106 14.5107C18.7286 14.6947 18.9847 14.7531 19.179 14.6826C19.3732 14.6122 19.4695 14.3973 19.4695 14.038C19.4685 13.8106 19.4186 13.5861 19.3234 13.3797C19.2248 13.1661 19.0931 12.9694 18.9332 12.7969C18.7842 12.6287 18.6102 12.4844 18.4175 12.3689L17.7694 12.0114Z" fill="#31A062"/>
<path opacity="0.2" d="M20.0248 11.3117V10.9525L22.5568 12.4136V12.766L21.455 12.1317V16.601L21.1267 16.4102V11.9409L20.0248 11.3117Z" fill="#31A062"/>
<path opacity="0.2" d="M22.9573 15.0642C22.9588 15.4809 23.0356 15.8938 23.1842 16.283C23.33 16.6762 23.5359 17.0444 23.7945 17.3745C24.0291 17.6811 24.321 17.9391 24.654 18.1343C24.8871 18.284 25.152 18.377 25.4275 18.4059C25.6309 18.4211 25.8332 18.3652 25.9999 18.2478V18.7635C25.8194 18.8418 25.6202 18.8669 25.4258 18.8357C25.1516 18.7802 24.89 18.6748 24.654 18.5245C24.3539 18.3493 24.0816 18.1303 23.846 17.8748C23.595 17.6053 23.3768 17.307 23.1963 16.9861C23.0113 16.6607 22.8659 16.3145 22.7631 15.9547C22.661 15.6021 22.6084 15.237 22.6067 14.87C22.5983 14.5607 22.6515 14.2527 22.7631 13.9641C22.8467 13.7438 22.9985 13.5559 23.1963 13.4278C23.392 13.312 23.6201 13.2632 23.846 13.2885C24.1326 13.3229 24.4083 13.4191 24.654 13.5705C24.9354 13.7298 25.1948 13.9251 25.4258 14.1515C25.6433 14.3751 25.8358 14.6218 25.9999 14.8872V15.3909C25.8452 15.0961 25.6528 14.8228 25.4275 14.5778C25.2024 14.3331 24.9416 14.1239 24.654 13.9572C24.3992 13.7915 24.0978 13.7125 23.7945 13.732C23.6699 13.7448 23.5499 13.7858 23.4435 13.8519C23.3372 13.9181 23.2473 14.0076 23.1808 14.1137C23.016 14.4023 22.9384 14.7324 22.9573 15.0642Z" fill="#31A062"/>
</g>
</svg>
