<svg width="42" height="31" viewBox="0 0 42 31" fill="none" xmlns="http://www.w3.org/2000/svg">
<g opacity="0.2">
<path opacity="0.2" d="M0.00259744 3.02891C-0.0179694 2.36501 0.0837445 1.70299 0.302663 1.07589C0.502707 0.567205 0.788484 0.235701 1.15999 0.0813801C1.5315 -0.0729407 1.96189 -0.007783 2.45114 0.276853C2.97944 0.600145 3.42087 1.04747 3.73713 1.58001C4.12092 2.19142 4.40997 2.8574 4.59447 3.55531C4.79375 4.30366 4.89291 5.07513 4.88938 5.84955C4.90967 6.51175 4.80795 7.17203 4.58932 7.79742C4.38927 8.31068 4.1035 8.6439 3.73199 8.79708C3.36505 8.9514 2.93466 8.88452 2.44084 8.59989C1.91151 8.27989 1.4683 7.83549 1.14971 7.30531C0.765033 6.6919 0.475947 6.02353 0.292376 5.32314C0.0958316 4.57437 -0.00159334 3.80304 0.00259744 3.02891ZM0.553007 3.34612C0.549962 3.99732 0.624208 4.64658 0.774195 5.28028C0.906753 5.86234 1.1258 6.42125 1.42405 6.93837C1.66543 7.37418 2.01578 7.7399 2.44084 7.99975C2.83521 8.22838 3.17358 8.26553 3.45593 8.11121C3.74056 7.96031 3.95661 7.65682 4.1075 7.20414C4.27215 6.65962 4.3497 6.0925 4.33727 5.52376C4.3391 4.8713 4.2637 4.22091 4.11264 3.58618C3.97922 3.00574 3.7596 2.44857 3.46107 1.93323C3.22079 1.49716 2.87092 1.13132 2.44599 0.871846C2.05162 0.643794 1.71383 0.607785 1.4292 0.758677C1.14456 0.909568 0.928515 1.21821 0.774195 1.66746C0.611536 2.21166 0.536868 2.77836 0.553007 3.34612Z" fill="#31A062"/>
<path opacity="0.2" d="M6.39837 10.4963C6.3924 10.4486 6.39964 10.4002 6.41929 10.3564C6.43895 10.3126 6.47027 10.275 6.50983 10.2477C6.55131 10.2274 6.59755 10.219 6.6435 10.2232C6.68946 10.2274 6.73337 10.2442 6.77045 10.2717C6.88016 10.3393 6.9696 10.4353 7.02936 10.5495C7.0993 10.6625 7.13778 10.7921 7.14082 10.925C7.1475 10.9717 7.14053 11.0194 7.12076 11.0623C7.10098 11.1052 7.06925 11.1415 7.02936 11.1668C6.98764 11.1836 6.9422 11.1892 6.89763 11.1829C6.85307 11.1766 6.81098 11.1586 6.7756 11.1308C6.66711 11.0623 6.57638 10.9691 6.51081 10.8588C6.44525 10.7486 6.40672 10.6243 6.39837 10.4963Z" fill="#31A062"/>
<path opacity="0.2" d="M8.51081 4.49497V3.89483L13.3359 6.68118L9.84312 12.7546L9.26184 12.4116L12.506 6.79435L8.51081 4.49497Z" fill="#31A062"/>
<path opacity="0.2" d="M13.7268 7.50766V6.90581L18.5519 9.69215L15.0574 15.7655L14.4761 15.4226L17.7203 9.81047L13.7268 7.50766Z" fill="#31A062"/>
<path opacity="0.2" d="M18.9498 10.5186V9.91677L23.7749 12.7031L20.2821 18.7765L19.7008 18.4336L22.9433 12.8163L18.9498 10.5186Z" fill="#31A062"/>
<path opacity="0.2" d="M29.9923 19.9493C30.2977 20.1979 30.5733 20.481 30.8136 20.793C31.0572 21.1076 31.2573 21.4537 31.4086 21.8218C31.558 22.1899 31.6343 22.5836 31.6332 22.9809C31.6332 23.5124 31.5332 23.8942 31.3331 24.1263C31.2314 24.2407 31.1027 24.3279 30.9586 24.3797C30.8145 24.4315 30.6597 24.4464 30.5084 24.4229C30.0816 24.3617 29.6726 24.211 29.3081 23.9805L27.6861 23.0443V14.9545L29.2087 15.8341C29.8032 16.1669 30.3135 16.6314 30.7004 17.1921C31.0605 17.7138 31.2526 18.333 31.2508 18.9668C31.2508 19.4241 31.1365 19.7281 30.9079 19.879C30.6793 20.0299 30.3741 20.0534 29.9923 19.9493ZM28.2296 18.6548L29.2018 19.2155C29.6151 19.4538 29.9666 19.5447 30.2581 19.4847C30.5496 19.4246 30.6936 19.1606 30.6936 18.6908C30.6903 18.2326 30.5486 17.7862 30.2872 17.4099C30.0086 16.9955 29.6369 16.652 29.2018 16.4068L28.2296 15.8461V18.6548ZM28.2296 19.2223V22.8043L29.3013 23.4233C29.8345 23.7319 30.2632 23.8262 30.5873 23.7096C30.9113 23.593 31.0725 23.2329 31.0725 22.6311C31.0724 22.2506 30.9887 21.8748 30.8273 21.5303C30.5011 20.8255 29.9691 20.2361 29.3013 19.8396L28.2296 19.2223Z" fill="#31A062"/>
<path opacity="0.2" d="M32.0036 18.0598V17.4579L36.2389 19.903V20.5049L34.3956 19.4418V26.9315L33.8452 26.6143V19.1228L32.0036 18.0598Z" fill="#31A062"/>
<path opacity="0.2" d="M36.9092 24.3355C36.9107 25.033 37.0391 25.7244 37.2881 26.3759C37.5352 27.0339 37.8822 27.6499 38.3169 28.2021C38.7082 28.714 39.1943 29.146 39.7487 29.4743C40.1395 29.7244 40.5834 29.8795 41.045 29.927C41.3842 29.9537 41.7221 29.8609 42 29.6647V30.522C41.6983 30.654 41.365 30.6962 41.0398 30.6438C40.5818 30.5522 40.1442 30.3779 39.7487 30.1294C39.247 29.8366 38.7916 29.4708 38.3975 29.044C37.9774 28.5927 37.6125 28.0931 37.3104 27.5556C37.0007 27.0074 36.7573 26.4243 36.5851 25.8187C36.4143 25.2284 36.3266 24.6173 36.3245 24.0028C36.3099 23.4858 36.3985 22.9711 36.5851 22.4888C36.7258 22.1201 36.9797 21.8055 37.3104 21.5903C37.6375 21.3955 38.0194 21.3136 38.3975 21.3571C38.8772 21.4139 39.3384 21.5754 39.7487 21.8303C40.2201 22.0954 40.6542 22.4217 41.0398 22.8008C41.4042 23.1747 41.7262 23.5875 42 24.032V24.8756C41.7428 24.3823 41.4217 23.9251 41.045 23.5159C40.668 23.1087 40.2308 22.7617 39.7487 22.4871C39.2343 22.1853 38.7525 22.0601 38.3221 22.1081C38.1132 22.1287 37.9119 22.1968 37.7335 22.3074C37.5552 22.418 37.4045 22.568 37.2933 22.746C37.0344 23.1061 36.9092 23.6427 36.9092 24.3355Z" fill="#31A062"/>
</g>
</svg>
