<svg width="43" height="31" viewBox="0 0 43 31" fill="none" xmlns="http://www.w3.org/2000/svg">
<g opacity="0.2">
<path opacity="0.2" d="M0.00272251 2.99082C-0.0182603 2.33468 0.0821913 1.68031 0.299017 1.06067C0.497676 0.559507 0.779861 0.232739 1.14557 0.0803578C1.51129 -0.0720229 1.93626 -0.00768709 2.42049 0.273371C2.94329 0.58978 3.38137 1.02846 3.69708 1.55167C4.07604 2.15601 4.36145 2.81418 4.54364 3.50385C4.74273 4.24474 4.84237 5.00883 4.83994 5.77601C4.85997 6.42988 4.75953 7.08186 4.54364 7.69939C4.34555 8.20733 4.06618 8.5341 3.69708 8.68648C3.32799 8.83886 2.90811 8.77283 2.42049 8.49177C1.89781 8.17579 1.46016 7.73699 1.14557 7.21346C0.765711 6.60778 0.480256 5.94781 0.299017 5.25622C0.100682 4.51748 0.00105099 3.75572 0.00272251 2.99082ZM0.546205 3.30405C0.545175 3.94715 0.619627 4.58815 0.768013 5.21389C0.89946 5.78872 1.11632 6.34061 1.41138 6.85114C1.64914 7.28136 1.99452 7.64248 2.41371 7.89918C2.80313 8.12493 3.13781 8.16161 3.41774 8.00923C3.6971 7.86024 3.91211 7.56055 4.06111 7.11357C4.22127 6.57779 4.29613 6.02014 4.28292 5.46109C4.28464 4.81628 4.21018 4.17352 4.06111 3.54617C3.92831 2.97336 3.71152 2.42335 3.41774 1.914C3.17984 1.48378 2.83375 1.12311 2.41371 0.867657C2.02599 0.642472 1.69075 0.605223 1.41138 0.755911C1.13202 0.906598 0.917006 1.2029 0.768013 1.64649C0.607154 2.18387 0.532287 2.74329 0.546205 3.30405Z" fill="#31A062"/>
<path opacity="0.2" d="M6.31808 10.3576C6.31238 10.3107 6.31943 10.2631 6.3385 10.2199C6.35757 10.1767 6.38796 10.1394 6.42644 10.112C6.4673 10.0917 6.51302 10.0831 6.55848 10.0873C6.60394 10.0915 6.64732 10.1083 6.68377 10.1357C6.79255 10.2018 6.88147 10.296 6.94112 10.4084C7.00929 10.5202 7.04667 10.6482 7.04948 10.7791C7.05617 10.8254 7.04952 10.8726 7.03032 10.9152C7.01113 10.9577 6.98019 10.994 6.94112 11.0196C6.89947 11.0378 6.85378 11.0447 6.8086 11.0397C6.76343 11.0346 6.72037 11.0177 6.68377 10.9908C6.57665 10.9249 6.4881 10.8329 6.42644 10.7233C6.35823 10.6133 6.32081 10.487 6.31808 10.3576Z" fill="#31A062"/>
<path opacity="0.2" d="M10.8657 13.3713C10.4286 13.1199 10.0385 12.7945 9.71271 12.4096C9.39719 12.0399 9.14388 11.6213 8.96267 11.1703C8.79491 10.7658 8.70583 10.3331 8.70023 9.89535L9.25388 10.2153C9.26598 10.7182 9.41653 11.208 9.68901 11.6308C9.97852 12.1088 10.3868 12.5036 10.8742 12.777C11.3483 13.0513 11.727 13.1162 12.0103 12.9717C12.293 12.8261 12.4353 12.5112 12.4353 12.0236C12.4342 11.6306 12.3396 11.2435 12.1593 10.8943C11.976 10.5311 11.7372 10.1986 11.4516 9.90889C11.1927 9.63922 10.8982 9.40623 10.5762 9.21641V8.65769C10.8263 8.813 11.1092 8.90753 11.4024 8.93366C11.5128 8.94555 11.6245 8.93306 11.7295 8.89708C11.8345 8.86109 11.9304 8.80249 12.0103 8.72541C12.0919 8.63199 12.154 8.5232 12.1929 8.40545C12.2319 8.2877 12.2469 8.16335 12.2372 8.0397C12.2292 7.59465 12.113 7.15824 11.8985 6.76818C11.6776 6.34193 11.3376 5.98902 10.9199 5.75232C10.5102 5.51528 10.1766 5.46787 9.9159 5.60671C9.65516 5.74554 9.52647 6.03507 9.52647 6.47697L9.00161 6.1739C8.97953 5.83802 9.06426 5.50376 9.24372 5.21898C9.3215 5.11197 9.42329 5.02468 9.5409 4.96411C9.65851 4.90354 9.78868 4.87138 9.92096 4.8702C10.2744 4.87596 10.6189 4.98162 10.9148 5.17497C11.3065 5.39949 11.6514 5.69724 11.9307 6.052C12.2036 6.39385 12.4208 6.77671 12.5741 7.18638C12.7151 7.55413 12.7902 7.94387 12.7959 8.33769C12.7959 8.7779 12.6689 9.08887 12.4149 9.27059C12.271 9.36329 12.1087 9.4237 11.9392 9.44767C11.7696 9.47163 11.5969 9.45859 11.4329 9.40943C11.8739 9.79208 12.2476 10.2459 12.5385 10.7521C12.8369 11.2541 12.9943 11.8273 12.994 12.4113C12.994 12.8538 12.9031 13.1839 12.7214 13.4018C12.6309 13.5102 12.5165 13.5962 12.3873 13.6531C12.2581 13.7101 12.1175 13.7365 11.9764 13.7302C11.5812 13.7094 11.1984 13.5856 10.8657 13.3713Z" fill="#31A062"/>
<path opacity="0.2" d="M13.9591 11.0484C13.9381 10.3922 14.0385 9.73787 14.2554 9.11823C14.4535 8.6103 14.7328 8.28861 15.1019 8.13792C15.471 7.98723 15.8892 8.04988 16.3769 8.33093C16.8996 8.64691 17.3372 9.08572 17.6518 9.60924C18.0315 10.2132 18.3169 10.8715 18.4984 11.5614C18.6981 12.3016 18.7983 13.0652 18.7964 13.8319C18.8162 14.4859 18.7152 15.1379 18.4984 15.7552C18.302 16.2632 18.0209 16.5916 17.6518 16.7423C17.2827 16.893 16.8645 16.8304 16.3769 16.5493C15.8542 16.2333 15.4165 15.7945 15.1019 15.271C14.7224 14.6652 14.4369 14.0052 14.2554 13.3138C14.057 12.575 13.9574 11.8133 13.9591 11.0484ZM14.5026 11.3616C14.5006 12.0042 14.575 12.6447 14.7244 13.2697C14.8555 13.8452 15.0724 14.3977 15.3678 14.9087C15.6045 15.3392 15.9502 15.7 16.3701 15.955C16.7595 16.1802 17.0931 16.2175 17.3741 16.0668C17.6552 15.9161 17.8685 15.6181 18.0158 15.1711C18.1768 14.6355 18.2517 14.0777 18.2376 13.5186C18.2402 12.8738 18.1657 12.2309 18.0158 11.6037C17.8843 11.0308 17.668 10.4807 17.3741 9.97156C17.1362 9.54134 16.7901 9.18066 16.3701 8.92522C15.9807 8.69947 15.6466 8.66222 15.3678 8.81347C15.0867 8.96416 14.8734 9.26045 14.7244 9.70405C14.5627 10.2412 14.4878 10.8008 14.5026 11.3616Z" fill="#31A062"/>
<path opacity="0.2" d="M24.2769 18.3745C24.2769 18.975 24.1714 19.4186 23.9603 19.7053C23.8656 19.8412 23.7388 19.9517 23.5911 20.0267C23.4433 20.1018 23.2794 20.1391 23.1137 20.1353C22.6924 20.1182 22.2833 19.9891 21.9285 19.7612C21.3535 19.4395 20.8595 18.9907 20.4843 18.449C20.1244 17.9249 19.8352 17.3556 19.6242 16.7559L20.0898 16.6695C20.2596 17.1795 20.5007 17.6629 20.806 18.1053C21.0944 18.5409 21.4783 18.9052 21.9285 19.1703C22.4613 19.4784 22.8908 19.5348 23.217 19.3396C23.5438 19.1466 23.7063 18.7165 23.7063 18.046C23.7055 17.6407 23.6303 17.239 23.4845 16.8608C23.3398 16.4779 23.1364 16.1198 22.8818 15.7992C22.6486 15.4989 22.3615 15.2445 22.0352 15.0492C21.7385 14.8618 21.4045 14.7411 21.0566 14.6953C20.7475 14.6787 20.4399 14.7478 20.1677 14.8951L21.0769 11.1702L24.3378 13.053V13.6117L21.4917 11.9694L20.9076 14.3262C21.1127 14.2804 21.3255 14.2804 21.5307 14.3262C21.7851 14.3808 22.0287 14.4769 22.2519 14.6107C22.6542 14.8491 23.0057 15.1644 23.2864 15.5385C23.5961 15.9423 23.8412 16.3919 24.0128 16.871C24.1877 17.3529 24.2771 17.8618 24.2769 18.3745Z" fill="#31A062"/>
<path opacity="0.2" d="M30.8598 20.4181C31.1621 20.6626 31.4344 20.9423 31.6708 21.2511C31.912 21.5613 32.1097 21.9031 32.2583 22.2669C32.406 22.6304 32.4813 23.0192 32.48 23.4115C32.48 23.9363 32.3813 24.3128 32.1838 24.5408C32.0837 24.6544 31.9566 24.7409 31.8143 24.7924C31.672 24.8439 31.5189 24.8587 31.3694 24.8354C30.9479 24.775 30.5441 24.6261 30.1842 24.3986L28.5826 23.4741V15.4928L30.086 16.3597C30.673 16.6882 31.1769 17.147 31.559 17.7006C31.9146 18.2157 32.1042 18.8271 32.1025 19.453C32.1025 19.9045 31.9896 20.2053 31.7639 20.3554C31.5353 20.5061 31.2356 20.5281 30.8598 20.4181ZM29.1193 19.1398L30.0792 19.6934C30.4878 19.9293 30.8355 20.0174 31.1222 19.9575C31.4089 19.8977 31.5522 19.6364 31.5522 19.1736C31.549 18.7212 31.4091 18.2804 31.151 17.9089C30.8758 17.4997 30.5088 17.1605 30.0792 16.9184L29.1193 16.3665V19.1398ZM29.1193 19.6985V23.2371L30.1774 23.8466C30.7057 24.1514 31.129 24.2456 31.4473 24.1294C31.7673 24.0142 31.9264 23.6587 31.9264 23.0661C31.9266 22.6904 31.8439 22.3192 31.6843 21.9791C31.5228 21.6255 31.3062 21.2998 31.0426 21.014C30.7922 20.7362 30.5003 20.4986 30.1774 20.3097L29.1193 19.6985Z" fill="#31A062"/>
<path opacity="0.2" d="M32.8458 18.5505V17.958L37.0278 20.3723V20.9615L35.2077 19.9118V27.3107L34.6642 26.9975V19.607L32.8458 18.5505Z" fill="#31A062"/>
<path opacity="0.2" d="M37.6898 24.749C37.692 25.4379 37.8194 26.1206 38.0657 26.7639C38.3088 27.4139 38.6515 28.0222 39.0815 28.567C39.4674 29.0725 39.9475 29.4986 40.4953 29.8216C40.8808 30.0697 41.3193 30.2234 41.7753 30.2703C42.1101 30.296 42.4435 30.2044 42.7183 30.0113V30.8578C42.4205 30.9887 42.0912 31.0304 41.7702 30.978C41.3178 30.8879 40.8857 30.7157 40.4953 30.4701C39.9995 30.1808 39.5498 29.819 39.1611 29.3967C38.7459 28.9514 38.3855 28.458 38.0877 27.927C37.7816 27.3858 37.5411 26.8101 37.3715 26.2119C37.2029 25.6296 37.1163 25.0267 37.1141 24.4206C37.0994 23.9101 37.1869 23.4018 37.3715 22.9256C37.5104 22.5615 37.7611 22.2509 38.0877 22.0384C38.4104 21.8456 38.7875 21.7641 39.1611 21.8064C39.635 21.8623 40.0906 22.0225 40.4953 22.2754C40.9611 22.5365 41.3899 22.8588 41.7702 23.2337C42.1307 23.6022 42.4488 24.0099 42.7183 24.4494V25.2824C42.4648 24.7945 42.1477 24.3425 41.7753 23.938C41.4026 23.5365 40.971 23.1939 40.4953 22.9222C39.9806 22.6264 39.511 22.5017 39.0866 22.548C38.8802 22.5685 38.6813 22.6361 38.5052 22.7455C38.3291 22.855 38.1804 23.0035 38.0707 23.1795C37.8168 23.5407 37.6898 24.0639 37.6898 24.749Z" fill="#31A062"/>
</g>
</svg>
