<svg width="26" height="19" viewBox="0 0 26 19" fill="none" xmlns="http://www.w3.org/2000/svg">
<g opacity="0.2">
<path opacity="0.2" d="M0.00238713 1.81074C-0.0129038 1.41389 0.0453676 1.01764 0.174259 0.641999C0.214996 0.513109 0.281791 0.393969 0.370488 0.291966C0.459185 0.189963 0.567891 0.10727 0.689873 0.0490294C0.907577 -0.0437828 1.16483 -0.00482584 1.4616 0.165903C1.77791 0.357109 2.0428 0.622596 2.2333 0.939338C2.46389 1.30459 2.63774 1.70271 2.74891 2.12012C2.8662 2.56894 2.92398 3.03123 2.92078 3.49511C2.9346 3.89075 2.87636 4.28562 2.74891 4.66043C2.70868 4.78999 2.6421 4.90984 2.55337 5.01247C2.46465 5.1151 2.35568 5.19829 2.2333 5.25682C2.0133 5.34964 1.75721 5.31011 1.4616 5.13995C1.14489 4.94924 0.879873 4.68365 0.689873 4.36652C0.458664 3.99974 0.284791 3.59983 0.174259 3.18059C0.0564511 2.73362 -0.00134677 2.27296 0.00238713 1.81074ZM0.330667 1.99981C0.329729 2.38875 0.374732 2.77642 0.464732 3.1548C0.544824 3.50291 0.676319 3.83715 0.854884 4.14652C0.998179 4.40735 1.20738 4.62603 1.4616 4.78074C1.54763 4.84486 1.6492 4.88487 1.75585 4.89665C1.86249 4.90843 1.97033 4.89156 2.06829 4.84777C2.26271 4.72412 2.40187 4.53016 2.45672 4.30636C2.55501 3.9823 2.60086 3.6446 2.5925 3.30605C2.59404 2.91585 2.54844 2.52689 2.45672 2.14762C2.37766 1.80054 2.24671 1.46737 2.06829 1.15934C1.92499 0.898518 1.71581 0.679837 1.4616 0.525125C1.37556 0.461008 1.27399 0.421 1.16734 0.409217C1.0607 0.397434 0.952836 0.414301 0.854884 0.458092C0.660891 0.580992 0.521289 0.773483 0.464732 0.99606C0.367316 1.32146 0.322063 1.66025 0.330667 1.99981Z" fill="#31A062"/>
<path opacity="0.2" d="M3.82321 6.26915C3.81965 6.24048 3.82402 6.21139 3.83584 6.18502C3.84765 6.15866 3.86645 6.13604 3.89021 6.11961C3.91483 6.10771 3.94222 6.1027 3.96945 6.10512C3.99669 6.10755 4.02277 6.1173 4.0449 6.13337C4.11086 6.17635 4.16471 6.23553 4.2013 6.30525C4.24205 6.37282 4.26456 6.44982 4.26661 6.5287C4.27047 6.55673 4.2664 6.58527 4.25486 6.6111C4.24332 6.63693 4.22476 6.65899 4.2013 6.6748C4.17596 6.68567 4.14825 6.6898 4.12084 6.68679C4.09344 6.68378 4.06727 6.67373 4.0449 6.65762C3.97866 6.61547 3.92517 6.55604 3.89021 6.48573C3.84825 6.42114 3.82507 6.34616 3.82321 6.26915Z" fill="#31A062"/>
<path opacity="0.2" d="M5.02631 6.16084L7.33458 3.62912L7.46177 3.70302V7.23163L8.11834 7.61147V7.95522L7.46177 7.57538V8.54304L7.13178 8.35225V7.38631L5.02631 6.16084ZM7.13178 7.03913V4.38537L5.5849 6.14022L7.13178 7.03913Z" fill="#31A062"/>
<path opacity="0.2" d="M8.44141 8.13397L10.7514 5.59879L10.8769 5.67098V9.20131L11.5352 9.58116V9.92491L10.8769 9.54506V10.5041L10.5469 10.3151V9.34741L8.44141 8.13397ZM10.5469 9.01053V6.35848L8.9914 8.11334L10.5469 9.01053Z" fill="#31A062"/>
<path opacity="0.2" d="M11.8565 10.1054L14.17 7.57024L14.2954 7.64243V11.1727L14.9537 11.5526V11.8963L14.2954 11.5165V12.4841L13.9654 12.2933V11.3257L11.8565 10.1054ZM13.962 10.9819V8.32992L12.4151 10.0848L13.962 10.9819Z" fill="#31A062"/>
<path opacity="0.2" d="M18.8191 12.4394C19.0024 12.5878 19.1674 12.7575 19.3107 12.9447C19.4574 13.1335 19.5771 13.3417 19.6665 13.5635C19.7546 13.782 19.8001 14.0154 19.8005 14.251C19.8249 14.4932 19.7641 14.7363 19.6287 14.9385C19.5673 15.006 19.49 15.0571 19.4039 15.0872C19.3177 15.1172 19.2254 15.1252 19.1354 15.1104C18.8789 15.0735 18.633 14.9833 18.4135 14.8457L17.4442 14.2854V9.45913L18.3534 9.98334C18.7092 10.1822 19.0145 10.4604 19.2454 10.7963C19.4613 11.1077 19.5765 11.4778 19.5754 11.8568C19.5754 12.1283 19.5066 12.3088 19.3708 12.4016C19.288 12.4499 19.1951 12.4784 19.0994 12.485C19.0037 12.4916 18.9078 12.476 18.8191 12.4394ZM17.7673 11.666L18.3465 12.0097C18.5313 12.1374 18.7556 12.1947 18.979 12.1713C19.1508 12.1352 19.2385 11.9771 19.2385 11.6952C19.2365 11.4217 19.152 11.1551 18.9962 10.9304C18.8293 10.6825 18.6068 10.4771 18.3465 10.3305L17.7673 9.9971V11.666ZM17.7673 12.0097V14.1513L18.4066 14.5208C18.7263 14.7042 18.983 14.7615 19.1766 14.6927C19.3691 14.624 19.4654 14.4091 19.4654 14.0499C19.4657 13.8224 19.4158 13.5976 19.3193 13.3916C19.221 13.1778 19.0899 12.9807 18.9308 12.8072C18.7813 12.6401 18.6075 12.4964 18.4152 12.381L17.7673 12.0097Z" fill="#31A062"/>
<path opacity="0.2" d="M20.0224 11.3102V10.951L22.5523 12.4119V12.7711L21.4523 12.1352V16.6039L21.1223 16.4132V11.9444L20.0224 11.3102Z" fill="#31A062"/>
<path opacity="0.2" d="M22.9527 15.0605C22.954 15.4777 23.0309 15.8911 23.1796 16.2808C23.3277 16.6761 23.5352 17.0464 23.7949 17.3791C24.0303 17.6848 24.322 17.9426 24.6543 18.1387C24.888 18.2884 25.1534 18.3814 25.4294 18.4103C25.6322 18.4257 25.834 18.3697 26 18.2522V18.7678C25.8198 18.8473 25.6205 18.873 25.426 18.8417C25.1522 18.7849 24.8909 18.6795 24.6543 18.5306C24.3545 18.3549 24.0823 18.136 23.8465 17.8809C23.5963 17.6113 23.3788 17.313 23.1985 16.9924C23.0141 16.6666 22.8681 16.3206 22.7637 15.9611C22.6622 15.6085 22.6101 15.2435 22.609 14.8766C22.6 14.5674 22.6526 14.2596 22.7637 13.9709C22.8485 13.7508 23.0007 13.5631 23.1985 13.4346C23.3931 13.3176 23.6209 13.2681 23.8465 13.2937C24.1333 13.3276 24.4092 13.4245 24.6543 13.5773C24.9366 13.7352 25.1962 13.9306 25.426 14.1582C25.6444 14.381 25.837 14.6278 26 14.8938V15.3974C25.8464 15.1025 25.6545 14.8292 25.4294 14.5844C25.2062 14.331 24.9446 14.1141 24.6543 13.9417C24.3996 13.7758 24.0982 13.6968 23.7949 13.7165C23.6703 13.729 23.5502 13.7699 23.4438 13.836C23.3375 13.9022 23.2477 13.9918 23.1813 14.098C23.0125 14.3895 22.933 14.7242 22.9527 15.0605Z" fill="#31A062"/>
</g>
</svg>
