<svg width="17" height="31" viewBox="0 0 17 31" fill="none" xmlns="http://www.w3.org/2000/svg">
<path d="M15.9621 15.024C15.8083 11.9813 13.5838 9.66213 10.6882 7.68947L10.8116 3.7019L8.68002 2.34961L8.61578 6.26449C8.04106 5.88923 7.48155 5.61539 6.90513 5.24013L7.04714 1.35229L4.91559 0L4.79051 3.98757C4.31044 3.7374 3.81178 3.38749 3.40778 3.16268L0.466542 1.36582L0.398934 3.9656L1.95576 4.93925C2.76376 5.39058 3.03591 6.13434 3.13902 6.72935L3.03927 11.2933C3.13995 11.3175 3.22834 11.3776 3.28777 11.4624C3.21001 11.437 3.11872 11.3119 3.03927 11.2933L2.89052 17.7083C2.86347 17.9804 2.63867 18.376 2.06226 18.0024L0.507109 17.0271L0 19.6759L2.79418 21.4321C3.37059 21.8074 3.85234 22.0576 4.351 22.4058L4.2445 26.4931L5.92473 27.5547L5.8774 27.4921L6.38451 27.842L6.5079 23.8544C7.09221 24.1631 7.65829 24.5051 8.20334 24.8788L8.07995 28.8664L10.2284 30.3133L10.3349 26.226C13.954 28.1513 16.5368 28.7092 16.9273 24.9954C17.1872 23.2014 16.7445 21.3763 15.6917 19.9007C15.5852 19.7536 15.4719 19.6049 15.3536 19.4663C14.9609 19.0009 14.5324 18.5669 14.0723 18.1681C14.0875 18.1681 14.101 18.1681 14.1162 18.1681C14.074 18.1258 14.03 18.0835 13.9776 18.0396C15.3164 18.1004 16.1193 17.2367 15.9621 15.024ZM12.7504 21.946L12.7268 21.9376C12.5729 24.8484 8.09347 21.7449 6.64145 20.8997L6.74286 15.499C7.99204 16.3086 11.4539 18.0345 12.4546 20.4653C12.523 20.63 12.5795 20.7995 12.6236 20.9724C12.7189 21.2908 12.7634 21.6222 12.7555 21.9545L12.7504 21.946ZM11.9306 13.7156C11.8968 16.5166 8.08164 13.8711 6.85951 13.097L6.96937 8.16785C7.28885 8.36393 7.78245 8.64622 8.34027 8.99613C9.92583 10.007 12.005 11.601 11.9357 13.7224L11.9306 13.7156Z" fill="white"/>
</svg>
