<svg width="26" height="19" viewBox="0 0 26 19" fill="none" xmlns="http://www.w3.org/2000/svg">
<g opacity="0.2">
<path opacity="0.2" d="M0.00238749 1.81097C-0.0129057 1.41407 0.0453745 1.01777 0.174285 0.642074C0.215029 0.513169 0.281824 0.394013 0.370534 0.291997C0.459245 0.189981 0.567978 0.107284 0.689978 0.0490356C0.907715 -0.0437883 1.16499 -0.00482645 1.4618 0.165924C1.77816 0.357154 2.04309 0.622675 2.23362 0.939457C2.46454 1.30521 2.63843 1.704 2.74931 2.1221C2.86689 2.57093 2.92469 3.03331 2.92121 3.49727C2.93502 3.89297 2.87678 4.28787 2.74931 4.66273C2.70907 4.79231 2.64249 4.91218 2.55375 5.01482C2.46501 5.11746 2.35602 5.20067 2.23362 5.25921C2.01359 5.35203 1.75746 5.3125 1.4618 5.14232C1.14505 4.95159 0.880007 4.68596 0.689978 4.36879C0.458734 4.00197 0.284834 3.602 0.174285 3.1827C0.0563082 2.73512 -0.00149971 2.27382 0.00238749 1.81097ZM0.330707 2.00006C0.329768 2.38904 0.374778 2.77677 0.464792 3.1552C0.544896 3.50335 0.676401 3.83763 0.854993 4.14704C0.99831 4.4079 1.20754 4.62661 1.4618 4.78134C1.54784 4.84546 1.64943 4.88548 1.75609 4.89726C1.86275 4.90905 1.97062 4.89217 2.06859 4.84837C2.26304 4.72471 2.40222 4.53072 2.45708 4.3069C2.55539 3.98279 2.60124 3.64505 2.59289 3.30646C2.59442 2.91621 2.54882 2.52721 2.45708 2.14789C2.37801 1.80076 2.24704 1.46755 2.06859 1.15948C1.92527 0.898626 1.71605 0.679917 1.4618 0.525186C1.37575 0.461061 1.27416 0.421042 1.1675 0.409258C1.06084 0.397474 0.95296 0.414353 0.854993 0.458149C0.66097 0.581066 0.521358 0.77358 0.464792 0.996185C0.367942 1.32172 0.323265 1.66054 0.332428 2.00006H0.330707Z" fill="#31A062"/>
<path opacity="0.2" d="M3.8237 6.26995C3.82015 6.24128 3.82451 6.21218 3.83633 6.18582C3.84815 6.15946 3.86697 6.13684 3.89074 6.12041C3.91536 6.1085 3.94274 6.10349 3.96998 6.10591C3.99722 6.10833 4.02329 6.1181 4.04542 6.13416C4.11064 6.1774 4.16472 6.23544 4.20325 6.30355C4.24178 6.37165 4.26368 6.4479 4.26716 6.52607C4.27089 6.55384 4.26675 6.5821 4.2552 6.60763C4.24365 6.63316 4.22516 6.65493 4.20184 6.67046C4.1765 6.68133 4.14879 6.68546 4.12138 6.68244C4.09397 6.67943 4.0678 6.66938 4.04542 6.65327C3.98073 6.61298 3.92747 6.55675 3.89074 6.48997C3.84816 6.42439 3.82492 6.34814 3.8237 6.26995Z" fill="#31A062"/>
<path opacity="0.2" d="M5.02695 6.16167L7.33724 3.6262L7.46272 3.70011V7.22914L8.11936 7.60903V7.95283L7.46272 7.57294V8.54071L7.13268 8.35163V7.37526L5.02695 6.16167ZM7.13268 7.04006V4.38598L5.58562 6.14104L7.13268 7.04006Z" fill="#31A062"/>
<path opacity="0.2" d="M8.4425 8.13503L10.7528 5.59956L10.8783 5.67176V9.20251L11.5366 9.5824V9.92619L10.8783 9.5463V10.5124L10.5482 10.3233V9.35549L8.4425 8.13503ZM10.5482 9.0117V6.35934L9.00116 8.1144L10.5482 9.0117Z" fill="#31A062"/>
<path opacity="0.2" d="M11.858 10.1067L14.1683 7.57122L14.2938 7.64341V11.1742L14.9522 11.5541V11.8978L14.2938 11.518V12.4857L13.9638 12.2949V11.3289L11.858 10.1067ZM13.9638 10.9851V8.331L12.4167 10.0861L13.9638 10.9851Z" fill="#31A062"/>
<path opacity="0.2" d="M18.8216 12.441C19.0044 12.5899 19.1694 12.7595 19.3132 12.9464C19.4599 13.1352 19.5797 13.3435 19.669 13.5652C19.7572 13.7838 19.8027 14.0172 19.8031 14.2528C19.8288 14.4951 19.7679 14.7387 19.6312 14.9404C19.5699 15.0081 19.4927 15.0593 19.4065 15.0893C19.3203 15.1194 19.2279 15.1273 19.1379 15.1123C18.8814 15.0754 18.6354 14.9853 18.4159 14.8476L17.4464 14.2872V9.46036L18.3557 9.98637C18.7119 10.1841 19.0173 10.4618 19.2479 10.7977C19.4638 11.1091 19.579 11.4793 19.5779 11.8583C19.5779 12.1299 19.5091 12.3121 19.3733 12.4032C19.2905 12.4515 19.1976 12.4801 19.1019 12.4866C19.0062 12.4932 18.9103 12.4776 18.8216 12.441ZM17.7696 11.6675L18.3489 12.0027C18.5336 12.1304 18.758 12.1877 18.9814 12.1643C19.1533 12.1282 19.241 11.97 19.241 11.6881C19.239 11.4146 19.1545 11.148 18.9986 10.9232C18.8318 10.6753 18.6092 10.4699 18.3489 10.3233L17.7696 9.9898V11.6675ZM17.7696 12.0113V14.148L18.409 14.5175C18.7287 14.7009 18.9854 14.7582 19.1791 14.6894C19.3728 14.6207 19.469 14.4058 19.4679 14.0448C19.4682 13.8173 19.4183 13.5925 19.3218 13.3865C19.2234 13.1726 19.0924 12.9755 18.9333 12.802C18.7812 12.6342 18.6044 12.4904 18.409 12.3757L17.7696 12.0113Z" fill="#31A062"/>
<path opacity="0.2" d="M20.0249 11.3117V10.9524L22.5553 12.4135V12.7728L21.4551 12.1368V16.6147L21.1319 16.4239V11.9546L20.0249 11.3117Z" fill="#31A062"/>
<path opacity="0.2" d="M22.9558 15.0625C22.9571 15.4796 23.0339 15.8931 23.1827 16.2829C23.3297 16.6759 23.5361 17.044 23.7946 17.3745C24.0295 17.6807 24.3213 17.9387 24.6541 18.1342C24.8878 18.284 25.1533 18.377 25.4293 18.4058C25.6322 18.4212 25.834 18.3653 26 18.2477V18.7634C25.8195 18.8417 25.6202 18.8668 25.4259 18.8356C25.1521 18.7788 24.8907 18.6734 24.6541 18.5244C24.3543 18.3488 24.0821 18.1298 23.8462 17.8747C23.5956 17.6053 23.378 17.3069 23.1981 16.986C23.0137 16.6602 22.8677 16.3141 22.7632 15.9546C22.6617 15.6019 22.6097 15.2369 22.6085 14.8699C22.5996 14.5607 22.6522 14.2528 22.7632 13.964C22.8481 13.7439 23.0003 13.5562 23.1981 13.4277C23.3927 13.3107 23.6205 13.2611 23.8462 13.2868C24.1331 13.3207 24.4089 13.4175 24.6541 13.5704C24.9364 13.7283 25.196 13.9238 25.4259 14.1514C25.6443 14.3743 25.8369 14.6211 26 14.8871V15.3908C25.8464 15.0958 25.6545 14.8225 25.4293 14.5777C25.2044 14.3322 24.9429 14.1229 24.6541 13.9572C24.3994 13.7913 24.0979 13.7123 23.7946 13.732C23.67 13.7445 23.5499 13.7854 23.4435 13.8515C23.3371 13.9177 23.2473 14.0073 23.1809 14.1136C23.0159 14.4015 22.9377 14.7311 22.9558 15.0625Z" fill="#31A062"/>
</g>
</svg>
