<svg width="45" height="59" viewBox="0 0 45 59" fill="none" xmlns="http://www.w3.org/2000/svg">
<path d="M44.6672 41.7343C44.6672 27.49 34.6674 10.1699 22.3302 3.04688C19.826 1.60085 17.4171 0.68559 15.1681 0.26709L14.9095 0.219456L14.6526 0.176926C14.4825 0.153109 14.3124 0.129293 14.1422 0.108878C13.802 0.0663475 13.4618 0.0357266 13.1385 0.0170132C12.9684 0.00850714 12.8102 0.00340244 12.6486 0C12.4036 0 12.162 0 11.9221 0C11.7622 0 11.604 0.0153099 11.4492 0.0255173C11.1345 0.0493343 10.8249 0.0816595 10.522 0.125891C10.3706 0.149708 10.2209 0.173523 10.0695 0.200743C9.92151 0.231365 9.7735 0.260286 9.6272 0.29431C8.69772 0.498343 7.79914 0.823802 6.95459 1.2623L1.98702 3.85156L2.53822 5.46092C2.24942 5.93254 1.98813 6.42047 1.75566 6.92226C1.68591 7.07537 1.61616 7.22848 1.54981 7.38669C0.549497 9.73608 0 12.6094 0 15.9489C0 19.2884 0.549497 22.7946 1.54981 26.3009C1.61616 26.5339 1.68591 26.7687 1.75566 27.0001C2.21499 28.5192 2.75597 30.035 3.37522 31.5355C3.47049 31.7669 3.56746 31.9965 3.66613 32.2279C3.71377 32.3419 3.7648 32.4559 3.81414 32.5681L4.12035 33.2486C4.22583 33.4783 4.3296 33.7063 4.43848 33.9291C4.49122 34.0431 4.54566 34.1554 4.6001 34.2694C4.70898 34.4973 4.81955 34.7219 4.93183 34.9498C4.98797 35.0638 5.04241 35.1761 5.10196 35.2901C5.21764 35.5147 5.33162 35.7392 5.4422 35.9604C5.50004 36.0727 5.55788 36.1849 5.61232 36.3006C5.9106 36.8586 6.21683 37.411 6.53098 37.9576C7.47494 39.5956 8.50447 41.1828 9.6153 42.7125C9.7616 42.9167 9.9096 43.1157 10.0576 43.3164C10.209 43.5172 10.3587 43.7145 10.5101 43.9119C10.813 44.3066 11.122 44.6961 11.4373 45.0806C11.5921 45.2711 11.7503 45.46 11.9102 45.6505C12.1507 45.9341 12.3928 46.2148 12.6367 46.4926C12.7977 46.6764 12.961 46.859 13.1266 47.0404C13.4566 47.4022 13.7912 47.7583 14.1303 48.1088C14.3004 48.2789 14.4706 48.449 14.6407 48.6191L14.901 48.876C15.0711 49.0462 15.2412 49.2163 15.4113 49.3779C17.5021 51.3966 19.8245 53.1606 22.3302 54.633C26.1018 56.8088 29.6454 57.7802 32.7689 57.673V59L37.7245 56.4158C42.0014 54.1855 44.6672 49.0887 44.6672 41.7343Z" fill="#35B76E"/>
</svg>
