<svg width="1" height="74" viewBox="0 0 1 74" fill="none" xmlns="http://www.w3.org/2000/svg">
<g opacity="0.94">
<path opacity="0.94" d="M0.677472 0H0.00170975V1.01365H0.677472V0Z" fill="#31A062"/>
<path opacity="0.94" d="M0.675763 70.9303H0V68.8743H0.675763V70.9303ZM0.675763 66.8183H0V64.7606H0.675763V66.8183ZM0.675763 62.7045H0V60.6485H0.675763V62.7045ZM0.675763 58.5925H0V56.5365H0.675763V58.5925ZM0.675763 54.4787H0V52.4227H0.675763V54.4787ZM0.675763 50.3667H0V48.3107H0.675763V50.3667ZM0.675763 46.2546H0V44.1952H0.675763V46.2546ZM0.675763 42.1409H0V40.0849H0.675763V42.1409ZM0.675763 38.0289H0V35.9728H0.675763V38.0289ZM0.675763 33.9151H0V31.8625H0.675763V33.9151ZM0.675763 29.8031H0V27.747H0.675763V29.8031ZM0.675763 25.691H0V23.6333H0.675763V25.691ZM0.675763 21.5773H0V19.5297H0.675763V21.5773ZM0.675763 17.4652H0V15.4075H0.675763V17.4652ZM0.675763 13.3515H0V11.2955H0.675763V13.3515ZM0.675763 9.23944H0V7.1834H0.675763V9.23944ZM0.675763 5.12569H0V3.06967H0.675763V5.12569Z" fill="#31A062"/>
<path opacity="0.94" d="M0.677472 72.9864H0.00170975V74H0.677472V72.9864Z" fill="#31A062"/>
</g>
</svg>
